<?xml version="1.0" standalone="no"?>
<!DOCTYPE svg PUBLIC "-//W3C//DTD SVG 20010904//EN"
 "http://www.w3.org/TR/2001/REC-SVG-20010904/DTD/svg10.dtd">
<svg version="1.0" xmlns="http://www.w3.org/2000/svg"
 width="500.000000pt" height="500.000000pt" viewBox="0 0 500.000000 500.000000"
 preserveAspectRatio="xMidYMid meet">

<g transform="translate(0.000000,500.000000) scale(0.100000,-0.100000)"
fill="#000000" stroke="none">
<path d="M2400 4745 c-47 -25 -124 -62 -171 -84 -83 -37 -86 -39 -82 -68 5
-34 37 -22 -292 -107 -77 -20 -275 -74 -440 -121 -165 -46 -337 -93 -382 -104
-46 -12 -106 -29 -135 -39 l-53 -17 0 -665 c0 -644 1 -669 22 -788 51 -279
110 -457 235 -711 115 -231 286 -482 480 -703 l60 -68 -256 0 -256 0 -15 37
c-38 91 -148 196 -243 233 -26 9 -78 29 -116 44 -38 15 -71 24 -74 21 -9 -8
14 -118 39 -185 15 -41 40 -80 80 -124 l58 -63 -52 -7 c-29 -3 -71 -6 -94 -6
-24 0 -43 -4 -43 -10 0 -5 21 -22 48 -37 42 -25 57 -28 132 -28 48 0 95 6 107
13 17 9 362 12 1535 12 1357 0 1518 -2 1558 -16 65 -23 165 -13 230 22 28 15
50 31 50 36 0 4 -17 8 -39 8 -21 0 -66 3 -100 6 l-61 7 53 56 c63 65 77 90
106 185 20 64 28 136 16 136 -3 0 -22 -8 -43 -19 -20 -10 -62 -26 -93 -35
-111 -31 -235 -137 -282 -238 l-22 -48 -258 0 -259 0 48 53 c184 202 368 467
488 708 101 199 154 341 195 514 68 293 65 247 68 981 3 540 1 673 -9 681 -7
5 -60 22 -118 37 -58 16 -267 72 -465 127 -198 54 -440 119 -538 145 l-177 47
6 32 c6 32 5 32 -62 61 -38 16 -117 53 -177 82 -59 28 -111 52 -115 52 -4 0
-45 -21 -92 -45z m100 -284 l0 -199 -103 51 -103 52 -12 90 c-7 49 -9 91 -5
93 4 1 53 27 108 57 55 30 103 55 108 55 4 0 7 -90 7 -199z m-327 -86 l6 -51
-92 -23 c-51 -12 -189 -50 -307 -82 -185 -52 -356 -98 -650 -177 l-65 -18 0
-529 c0 -464 3 -544 19 -640 28 -174 73 -366 108 -462 41 -113 171 -376 233
-473 61 -96 205 -287 253 -337 21 -21 69 -74 109 -118 39 -44 98 -102 132
-130 33 -27 61 -53 61 -57 0 -5 -39 -8 -87 -8 l-87 0 -98 101 c-99 102 -119
125 -260 312 -238 317 -393 666 -463 1044 -38 203 -45 355 -45 895 1 459 2
497 18 502 120 36 471 134 592 165 85 22 256 69 380 104 251 72 232 73 243
-18z m987 -11 c107 -30 249 -68 315 -85 66 -17 205 -55 308 -85 104 -29 206
-58 227 -64 l37 -10 1 -393 c2 -598 -9 -837 -47 -1027 -97 -483 -338 -932
-703 -1315 l-110 -115 -89 0 -89 0 147 148 c252 252 409 466 531 728 110 236
146 342 186 549 49 257 51 282 51 820 l0 510 -80 21 c-44 12 -253 69 -465 127
-212 58 -424 116 -472 128 l-88 22 0 46 c0 25 3 55 6 67 l6 21 66 -19 c37 -10
155 -44 262 -74z m-960 -171 c-11 -15 -37 -38 -58 -51 -81 -54 -102 -83 -133
-185 l-17 -57 27 20 c16 10 47 44 71 75 46 60 90 94 75 59 -4 -11 -14 -39 -22
-62 -10 -28 -42 -73 -87 -121 -40 -42 -88 -102 -106 -134 -19 -31 -38 -57 -42
-57 -4 0 -10 21 -14 46 -8 54 7 113 42 167 16 25 22 45 18 61 -3 13 0 43 6 67
22 81 90 148 183 180 74 25 82 24 57 -8z m676 -3 c95 -41 167 -139 163 -222
-2 -33 4 -54 26 -88 15 -24 30 -63 33 -87 5 -45 -5 -113 -16 -113 -4 0 -20 24
-36 53 -16 28 -63 88 -105 132 -59 61 -82 94 -98 140 -12 32 -20 61 -17 64 3
3 43 -35 89 -84 l84 -90 -18 60 c-25 84 -46 120 -88 152 -20 15 -57 47 -82 71
l-46 43 35 -6 c19 -4 54 -15 76 -25z m-334 -105 c20 -27 59 -85 88 -127 l51
-78 -87 -102 c-48 -57 -90 -105 -92 -108 -6 -7 -191 193 -192 208 0 26 179
277 190 265 3 -4 23 -30 42 -58z m-791 -63 c-44 -88 -56 -164 -42 -273 7 -50
10 -93 8 -96 -2 -2 -17 13 -33 34 -15 21 -56 70 -90 109 -63 71 -84 107 -84
147 0 18 8 13 51 -31 56 -56 79 -65 79 -29 0 57 93 197 131 197 5 0 -4 -26
-20 -58z m1519 22 c38 -35 80 -120 80 -164 0 -33 28 -23 80 30 47 46 50 47 50
24 0 -36 -13 -57 -99 -159 -42 -50 -84 -102 -93 -115 -18 -25 -18 -24 -10 40
16 143 4 245 -40 332 -30 61 -24 63 32 12z m-2031 -186 c18 -33 54 -82 80
-107 l46 -46 5 67 c7 95 23 105 39 22 15 -85 56 -192 83 -222 25 -26 112 -77
101 -59 -4 7 -26 39 -50 72 -24 33 -40 61 -35 63 5 1 46 -15 93 -37 53 -25 88
-36 95 -31 13 11 64 -39 88 -87 31 -62 78 -103 199 -174 244 -145 329 -282
377 -609 23 -164 32 -196 66 -240 l26 -35 -4 185 c-4 178 -5 189 -36 279 -41
118 -113 239 -206 343 -54 61 -101 101 -197 164 -131 87 -166 121 -199 199
-21 48 -45 166 -38 186 2 7 20 -13 39 -44 39 -64 165 -218 192 -236 27 -17 29
-10 16 44 -23 91 23 202 108 259 20 14 39 24 41 22 2 -2 -6 -23 -18 -46 -48
-94 -56 -211 -21 -303 26 -69 100 -177 171 -251 42 -45 91 -101 109 -125 l31
-44 0 77 c0 87 -1 88 -80 206 -31 47 -66 103 -78 125 -24 49 -53 155 -42 155
4 0 53 -51 108 -112 55 -62 111 -123 125 -136 l25 -23 88 97 c49 54 106 116
127 138 l39 41 -7 -45 c-9 -65 -36 -121 -126 -256 l-80 -122 3 -75 c2 -42 6
-73 9 -69 3 4 31 39 61 77 31 39 68 81 83 95 81 74 170 226 186 318 12 66 -5
162 -41 232 -26 51 -25 53 8 36 71 -37 121 -127 122 -218 0 -31 -5 -69 -10
-84 -24 -63 18 -33 115 83 39 46 87 112 107 146 l38 62 0 -42 c0 -65 -45 -191
-88 -248 -23 -30 -63 -65 -102 -89 -226 -135 -346 -277 -446 -527 l-38 -94 -4
-190 -3 -190 31 47 c32 47 39 77 69 289 18 128 55 227 124 330 69 104 110 139
259 225 101 58 153 106 187 171 24 47 76 99 85 84 8 -12 36 -3 123 42 34 17
65 29 69 25 5 -6 -37 -68 -100 -147 -11 -15 51 24 98 60 38 30 72 107 94 214
21 101 34 99 42 -5 l5 -65 50 50 c28 28 64 76 80 107 17 32 33 58 37 58 9 0
-1 -75 -19 -140 -28 -105 -82 -171 -201 -248 -102 -66 -252 -112 -226 -70 4 7
2 8 -5 4 -6 -4 -8 -12 -5 -18 4 -6 2 -8 -3 -5 -17 11 -72 -23 -88 -53 -21 -41
-64 -73 -177 -132 -60 -31 -126 -75 -160 -107 -105 -96 -172 -241 -166 -356
l3 -56 115 138 c89 106 127 143 168 166 61 33 75 29 44 -11 -17 -22 -98 -157
-110 -184 -9 -21 22 -3 75 42 71 61 94 72 224 111 56 16 115 37 131 45 39 20
35 5 -12 -46 -22 -24 -40 -44 -40 -45 0 -1 24 2 53 7 88 16 132 49 173 130 19
38 37 68 40 65 2 -2 5 -20 6 -40 l1 -36 28 19 c63 46 149 89 149 75 0 -23 -63
-97 -124 -147 -89 -72 -182 -116 -270 -130 -69 -10 -76 -14 -70 -31 6 -18 3
-19 -42 -11 -83 14 -123 11 -139 -14 -19 -26 -72 -42 -145 -42 -40 0 -69 -7
-108 -27 -59 -30 -144 -116 -160 -161 l-10 -29 41 9 c23 5 49 17 57 28 19 23
80 60 99 60 9 0 2 -13 -18 -34 l-33 -34 58 -7 c80 -8 104 -14 104 -23 0 -5
-25 -37 -56 -71 -77 -85 -194 -150 -194 -108 0 22 41 91 69 114 24 20 24 22 6
23 -31 0 -136 -54 -183 -95 -24 -21 -61 -62 -83 -91 l-39 -53 0 -113 0 -113
79 77 c87 84 191 164 291 224 112 67 192 172 249 324 l14 35 10 -39 c7 -27 6
-54 -2 -89 -6 -28 -10 -52 -8 -54 11 -11 133 95 198 173 41 49 83 90 92 92 15
3 15 -1 1 -50 -21 -70 -46 -117 -79 -150 l-26 -26 53 12 c29 7 86 30 126 51
71 37 96 61 247 230 l26 30 -6 -40 c-11 -65 -53 -142 -108 -196 -82 -80 -153
-111 -387 -164 -74 -17 -202 -76 -250 -116 l-25 -21 45 6 c25 3 122 8 215 11
94 3 186 8 205 10 25 3 31 2 20 -5 -24 -15 -2 -12 30 5 16 8 57 52 92 97 68
88 81 87 54 -5 -28 -96 -126 -183 -230 -201 -21 -4 -150 -8 -285 -8 l-246 -1
60 -18 c33 -10 93 -35 132 -55 59 -30 86 -38 148 -42 85 -5 90 -14 29 -50 -32
-19 -51 -22 -105 -20 -56 3 -76 9 -126 40 -60 37 -204 82 -245 76 -36 -5 -31
-24 11 -42 21 -10 56 -36 77 -57 l38 -39 -54 0 c-33 0 -73 8 -99 20 -42 20
-43 20 -70 1 -46 -33 -138 -135 -162 -181 -18 -34 -25 -67 -29 -135 l-5 -90
76 80 c41 44 99 106 128 137 73 79 125 98 301 108 74 5 136 7 138 5 2 -1 -12
-12 -30 -23 -18 -11 -91 -33 -163 -47 -71 -15 -139 -32 -150 -38 -18 -10 -15
-12 25 -18 25 -4 69 -8 98 -8 67 -1 65 -14 -6 -57 -47 -29 -91 -41 -208 -59
-57 -9 -116 -55 -166 -129 l-42 -61 3 -106 c2 -100 1 -109 -24 -145 -14 -21
-27 -40 -29 -41 -2 -2 -15 15 -30 37 -24 37 -26 47 -26 152 0 106 -2 116 -26
153 -67 101 -117 133 -230 152 -90 14 -156 40 -195 76 l-24 22 98 9 c53 5 97
12 97 16 0 9 -84 31 -211 55 -55 11 -96 25 -114 40 l-29 22 105 -4 c57 -2 140
-13 184 -24 l80 -19 137 -142 136 -143 -2 80 c-3 67 -8 90 -34 142 -31 61
-146 187 -181 198 -9 3 -34 -4 -56 -15 -25 -13 -59 -20 -93 -20 l-53 0 20 29
c11 15 45 41 76 57 30 16 55 33 55 37 0 34 -177 -4 -268 -59 -70 -41 -127 -55
-178 -44 -34 8 -104 49 -104 61 0 4 31 9 68 11 50 4 90 15 152 43 47 21 110
46 140 55 55 17 54 17 -198 18 -280 1 -326 8 -401 62 -23 17 -55 51 -71 76
-27 43 -58 140 -47 150 3 3 32 -28 65 -68 68 -83 85 -99 126 -117 24 -10 27
-10 19 1 -9 11 22 12 170 7 100 -3 209 -9 242 -14 l60 -7 -54 37 c-83 58 -167
92 -281 115 -154 32 -248 72 -319 137 -65 58 -115 146 -126 218 l-6 40 23 -29
c144 -184 233 -253 372 -290 l59 -15 -26 27 c-32 34 -66 103 -83 165 l-12 47
26 -16 c15 -9 43 -37 62 -62 61 -81 100 -120 162 -163 56 -38 60 -39 54 -18
-14 49 -17 115 -8 139 l10 25 12 -30 c75 -182 134 -257 270 -342 99 -62 189
-132 278 -217 l72 -69 0 112 0 112 -39 53 c-57 77 -134 142 -197 165 -79 30
-96 26 -50 -10 25 -20 64 -105 53 -116 -9 -8 -81 25 -128 59 -38 28 -119 122
-119 139 0 5 15 9 34 9 18 0 54 3 79 6 l47 7 -30 30 c-17 17 -30 35 -30 39 0
13 61 -21 95 -52 17 -15 49 -32 72 -37 l42 -11 -14 35 c-22 51 -72 105 -133
143 -47 29 -66 35 -145 41 -51 4 -93 8 -94 8 -1 1 -17 15 -34 32 -34 33 -33
33 -151 13 -33 -6 -36 -4 -32 13 5 18 -1 21 -44 27 -27 3 -72 13 -100 21 -55
17 -211 116 -253 161 -28 30 -69 93 -69 107 0 7 94 -42 142 -75 14 -10 29 -18
32 -18 3 0 6 19 6 43 l1 42 37 -72 c20 -39 50 -81 65 -93 30 -24 106 -50 144
-50 22 0 21 2 -17 42 -47 49 -51 64 -12 44 16 -8 74 -28 130 -45 119 -35 152
-51 212 -101 43 -35 82 -60 95 -60 3 0 -7 19 -23 43 -16 23 -39 60 -51 82 -11
22 -31 52 -43 67 -27 35 -20 43 23 25 48 -20 92 -60 157 -141 31 -39 78 -95
104 -124 l48 -52 0 53 c0 189 -122 362 -331 471 -114 59 -155 88 -173 125 -8
15 -32 35 -53 45 -21 11 -46 23 -57 28 -13 7 -16 6 -10 -3 13 -22 -56 -1 -151
45 -89 44 -188 128 -221 188 -33 59 -75 228 -57 228 4 0 23 -28 42 -62z m1102
-100 c35 -40 85 -94 111 -120 l47 -48 78 87 c43 47 92 102 109 122 l31 35 22
-49 c12 -27 20 -52 19 -56 -2 -5 -49 -59 -104 -121 -56 -62 -115 -128 -131
-147 l-29 -33 -71 83 c-39 46 -92 104 -118 129 -26 25 -55 57 -66 72 -20 27
-20 27 3 72 13 25 26 46 29 46 3 0 35 -33 70 -72z m-1117 -270 c35 -60 132
-165 179 -195 21 -13 40 -23 42 -21 1 2 -20 43 -47 91 -28 48 -49 89 -47 91 2
2 24 -5 48 -17 29 -13 60 -41 90 -81 94 -123 141 -164 222 -195 l27 -10 -30
58 c-17 32 -28 66 -26 75 5 29 126 -88 154 -149 l24 -50 -85 -3 c-69 -2 -94 1
-135 19 -27 12 -50 25 -50 29 0 4 -53 29 -117 56 -101 42 -126 58 -179 109
-45 44 -67 75 -82 118 -19 51 -29 117 -18 117 2 0 16 -19 30 -42z m2555 -73
c-25 -66 -90 -143 -154 -180 -22 -13 -80 -41 -130 -61 -49 -21 -94 -44 -100
-51 -22 -27 -85 -43 -174 -43 l-90 0 20 48 c23 52 42 75 113 135 l49 41 -7
-39 c-4 -22 -18 -57 -32 -77 -27 -43 -27 -44 20 -24 62 26 120 77 186 163 47
64 77 93 110 109 25 13 46 21 48 19 2 -2 -18 -43 -46 -92 -27 -48 -48 -90 -46
-92 7 -7 83 49 119 87 19 20 56 68 83 106 45 66 47 67 50 39 2 -16 -7 -56 -19
-88z m-139 -593 c0 -18 -4 -42 -10 -52 -11 -21 -78 -65 -86 -57 -13 12 10 70
42 108 19 22 34 46 34 52 1 29 20 -22 20 -51z m-2203 -46 c7 -12 12 -31 13
-44 0 -22 -1 -22 -29 -7 -56 29 -83 82 -65 130 5 13 12 9 38 -21 17 -20 36
-47 43 -58z m167 -778 c52 -40 78 -69 127 -142 50 -76 51 -89 2 -80 -76 13
-130 78 -166 202 -9 28 -13 52 -10 52 3 0 24 -14 47 -32z m1821 -30 c-36 -108
-84 -172 -139 -183 -17 -4 -39 -9 -48 -11 -29 -8 -21 16 27 88 41 62 161 176
172 164 3 -3 -3 -29 -12 -58z m-1494 -183 c25 -13 94 -84 87 -90 -5 -5 -133
21 -151 31 -17 10 -67 73 -67 85 0 9 100 -10 131 -26z m1259 22 c0 -8 -15 -30
-32 -50 -28 -31 -44 -39 -103 -51 -38 -8 -72 -13 -74 -11 -7 7 51 70 78 84 14
8 49 20 76 27 28 7 51 13 53 13 1 1 2 -5 2 -12z m-902 -282 c48 -81 116 -234
108 -242 -7 -8 -89 42 -132 80 -20 17 -49 55 -66 84 -31 55 -33 56 -84 53 -66
-3 -137 43 -195 128 -41 58 -25 55 133 -23 72 -36 133 -64 134 -62 1 1 -4 25
-11 53 -7 28 -11 62 -8 77 5 26 6 26 43 -26 20 -28 55 -84 78 -122z m535 92
c-6 -28 -15 -61 -19 -72 -7 -19 -6 -19 12 -4 27 23 261 132 274 127 5 -1 -6
-26 -25 -55 -44 -65 -107 -104 -183 -112 -55 -6 -56 -6 -89 -63 -18 -31 -50
-69 -70 -86 -39 -30 -122 -76 -128 -70 -14 14 111 257 188 366 40 55 56 43 40
-31z m-1956 -179 c52 -29 128 -100 148 -139 l16 -29 -36 0 c-31 0 -45 9 -100
64 -68 69 -106 126 -83 126 7 0 32 -10 55 -22z m3323 17 c0 -15 -40 -66 -94
-122 -53 -56 -65 -63 -99 -63 -36 0 -37 1 -26 22 24 45 106 122 154 144 51 24
65 28 65 19z m-2032 -99 c48 -30 96 -62 107 -70 19 -15 18 -15 -16 -16 -39 0
-103 37 -156 90 -30 29 -41 50 -28 50 3 0 45 -24 93 -54z m760 22 c-14 -18
-49 -49 -80 -71 -45 -32 -61 -38 -94 -35 l-39 3 110 68 c60 37 113 67 118 67
5 0 -2 -14 -15 -32z"/>
<path d="M2528 3903 l-27 -27 -24 22 c-54 51 -71 8 -18 -47 l38 -40 42 43 c35
36 39 44 29 59 -12 16 -15 15 -40 -10z"/>
<path d="M3913 1672 c-21 -3 -53 -36 -53 -54 0 -15 47 -8 62 10 34 40 32 51
-9 44z"/>
<path d="M1046 1658 c17 -31 39 -48 61 -48 28 0 30 21 5 43 -22 20 -77 24 -66
5z"/>
<path d="M1210 1595 c-11 -13 -11 -18 2 -31 20 -20 50 -7 46 20 -4 26 -30 32
-48 11z"/>
<path d="M3737 1603 c-13 -12 -7 -41 10 -47 21 -9 46 16 37 37 -6 17 -35 23
-47 10z"/>
<path d="M1270 1454 c0 -30 48 -68 74 -58 21 8 20 20 -4 44 -18 18 -70 29 -70
14z"/>
<path d="M3664 1452 c-6 -4 -16 -17 -22 -29 -9 -17 -9 -22 4 -27 26 -10 74 28
74 58 0 9 -43 7 -56 -2z"/>
<path d="M1125 1440 c-11 -17 28 -59 64 -70 19 -5 37 -8 39 -6 8 9 -32 58 -59
72 -33 17 -36 17 -44 4z"/>
<path d="M3824 1435 c-27 -11 -63 -59 -53 -70 12 -11 64 14 86 42 28 36 14 48
-33 28z"/>
<path d="M903 1030 c-19 -15 -21 -21 -10 -43 11 -24 47 -34 47 -13 0 5 6 17
14 25 12 14 11 18 -8 32 -20 16 -23 15 -43 -1z"/>
<path d="M4042 1030 c-19 -16 -20 -20 -7 -30 8 -7 15 -18 15 -24 0 -7 9 -12
20 -13 14 -1 20 4 20 18 0 10 5 19 10 19 17 0 11 14 -13 31 -21 16 -24 15 -45
-1z"/>
<path d="M1265 1020 c-79 -18 -115 -61 -115 -136 0 -45 5 -59 30 -88 36 -41
88 -61 133 -51 18 3 50 6 72 5 l40 -1 -3 76 -4 75 -54 0 c-51 0 -54 -1 -54
-25 0 -20 5 -25 25 -25 18 0 25 -5 25 -19 0 -42 -80 -43 -121 -2 -70 70 5 165
100 125 32 -13 36 -13 54 4 18 19 18 20 -10 39 -34 24 -77 33 -118 23z"/>
<path d="M1532 923 c5 -141 35 -183 129 -183 52 0 93 22 107 57 6 15 12 72 14
126 l3 97 -27 0 -26 0 -4 -96 c-3 -105 -14 -124 -70 -124 -53 0 -68 29 -68
130 l0 90 -31 0 -31 0 4 -97z"/>
<path d="M1990 1008 c0 -6 -25 -67 -55 -135 -30 -68 -55 -126 -55 -129 0 -2
15 -4 33 -4 27 0 35 5 44 30 11 29 14 30 71 30 57 0 60 -1 72 -30 10 -25 18
-30 47 -30 19 0 33 4 31 9 -1 4 -30 67 -63 140 -59 129 -61 131 -92 131 -19 0
-33 -5 -33 -12z m70 -145 c0 -8 -13 -13 -35 -13 -19 0 -35 2 -35 5 0 2 7 23
17 46 l16 42 18 -34 c10 -19 18 -40 19 -46z"/>
<path d="M2270 880 l0 -140 33 0 c32 0 32 0 29 45 l-4 45 36 0 c33 0 39 -5 64
-45 23 -39 32 -45 59 -45 18 0 33 2 33 5 0 3 -13 26 -29 52 l-29 47 24 29 c33
39 31 81 -5 118 -28 28 -33 29 -120 29 l-91 0 0 -140z m160 72 c17 -13 21 -24
16 -40 -6 -19 -15 -22 -62 -22 l-54 0 0 34 c0 36 0 36 66 45 7 0 22 -7 34 -17z"/>
<path d="M2630 879 l0 -141 88 4 c56 3 99 11 120 22 68 36 92 126 51 193 -32
51 -64 63 -169 63 l-90 0 0 -141z m192 63 c10 -9 20 -31 24 -49 5 -27 1 -37
-24 -63 -26 -25 -38 -30 -81 -30 l-51 0 0 79 c0 54 4 81 13 85 23 10 102 -4
119 -22z"/>
<path d="M3020 880 l0 -140 33 0 32 0 -3 140 -3 140 -30 0 -29 0 0 -140z"/>
<path d="M3274 983 c-9 -21 -36 -84 -59 -140 l-43 -103 32 0 c26 0 34 5 43 30
11 28 14 30 68 30 52 0 57 -2 73 -30 13 -23 24 -30 49 -30 l32 0 -25 58 c-101
229 -97 222 -126 222 -22 0 -31 -7 -44 -37z m76 -120 c0 -8 -13 -13 -35 -13
-19 0 -35 2 -35 5 0 2 7 23 17 46 l16 42 18 -34 c10 -19 18 -40 19 -46z"/>
<path d="M3558 880 l3 -140 32 0 32 0 -3 82 -3 83 73 -78 c54 -57 79 -78 98
-77 l25 0 3 135 2 135 -32 0 -33 0 0 -75 c0 -41 -3 -75 -7 -75 -3 0 -37 34
-75 75 -50 54 -76 75 -94 75 l-24 0 3 -140z"/>
<path d="M910 848 c0 -6 -6 -19 -14 -27 -12 -14 -11 -18 8 -32 20 -16 23 -15
43 1 l21 17 -24 26 c-27 30 -34 33 -34 15z"/>
<path d="M4047 834 c-24 -26 -25 -29 -9 -40 9 -6 19 -13 22 -15 3 -2 14 3 26
11 20 14 20 16 4 43 l-18 29 -25 -28z"/>
<path d="M705 673 l-49 -4 44 -20 c70 -31 145 -49 262 -60 102 -10 109 -12
174 -55 l68 -44 396 0 c379 0 398 -1 414 -19 52 -58 467 -307 493 -297 10 4
70 38 135 77 64 38 119 69 123 69 10 0 199 136 214 154 12 14 58 16 409 16
l395 0 76 46 c72 44 81 46 178 54 111 10 163 21 238 53 l50 22 -45 7 c-60 9
-521 8 -585 -1 l-50 -7 83 -20 c82 -19 83 -19 61 -36 -20 -17 -96 -18 -1285
-18 -1235 0 -1314 2 -1314 29 0 4 37 15 83 26 l82 20 -50 7 c-52 7 -513 7
-600 1z m1797 -278 c-3 -93 -4 -96 -25 -89 -27 8 -285 163 -293 175 -3 5 66 9
158 9 l163 0 -3 -95z"/>
<path d="M3085 357 c-23 -17 -14 -47 15 -47 26 0 37 27 18 46 -12 12 -17 12
-33 1z"/>
<path d="M1863 344 c-3 -8 -1 -20 5 -26 16 -16 47 -5 50 20 3 18 -1 22 -23 22
-14 0 -28 -7 -32 -16z"/>
</g>
</svg>
